<svg xmlns="http://www.w3.org/2000/svg" viewBox="0 0 64 64" role="img" aria-label="ICACT">
  <defs>
    <linearGradient id="icactG" x1="0" y1="0" x2="1" y2="1">
      <stop offset="0" stop-color="#0A6FB0"/>
      <stop offset="1" stop-color="#002B49"/>
    </linearGradient>
  </defs>
  <circle cx="32" cy="32" r="31" fill="url(#icactG)"/>
  <circle cx="32" cy="32" r="30" fill="none" stroke="#ffffff" stroke-opacity="0.18"/>
  <!-- circuit traces -->
  <g stroke="#8FC5EA" stroke-opacity="0.7" stroke-width="1.6" fill="none" stroke-linecap="round">
    <path d="M32 20 v-8"/><path d="M32 44 v8"/><path d="M20 32 h-8"/><path d="M44 32 h8"/>
    <path d="M23.5 23.5 L17 17"/><path d="M40.5 23.5 L47 17"/><path d="M23.5 40.5 L17 47"/><path d="M40.5 40.5 L47 47"/>
  </g>
  <!-- pin nodes -->
  <g fill="#A6CCE3">
    <circle cx="32" cy="12" r="2.3"/><circle cx="32" cy="52" r="2.3"/>
    <circle cx="12" cy="32" r="2.3"/><circle cx="52" cy="32" r="2.3"/>
    <circle cx="17" cy="17" r="2.3"/><circle cx="47" cy="17" r="2.3"/>
    <circle cx="17" cy="47" r="2.3"/><circle cx="47" cy="47" r="2.3"/>
  </g>
  <!-- central chip -->
  <rect x="22" y="22" width="20" height="20" rx="4" fill="#002B49" stroke="#8FC5EA" stroke-width="1.5"/>
  <text x="32" y="36.5" text-anchor="middle" font-family="'Trebuchet MS',Verdana,Arial,sans-serif" font-size="10.5" font-weight="bold" fill="#ffffff" letter-spacing="0.5">AC</text>
</svg>
